# MagicaVoxel @ Ephtracy

# group
g robot_arm_shoulder

# material
mtllib robot_arm_shoulder.mtl
usemtl palette

# normals
vn -1 0 0
vn 1 0 0
vn 0 0 1
vn 0 0 -1
vn 0 -1 0
vn 0 1 0

# texcoords
vt 0.861328 0.5
vt 0.974609 0.5

# verts
v -2.5 0 1.5
v -2.5 0 -1.5
v -2.5 3 1.5
v -2.5 3 -1.5
v -2.5 23 1.5
v -2.5 23 -1.5
v -1.5 0 2.5
v -1.5 0 1.5
v -1.5 0 -1.5
v -1.5 0 -2.5
v -1.5 3 1.5
v -1.5 3 -1.5
v -1.5 3 -2.5
v -1.5 23 2.5
v -1.5 23 1.5
v -1.5 23 -1.5
v -1.5 23 -2.5
v 1.5 0 2.5
v 1.5 0 1.5
v 1.5 0 -1.5
v 1.5 0 -2.5
v 1.5 3 2.5
v 1.5 3 1.5
v 1.5 23 2.5
v 1.5 23 1.5
v 1.5 23 -1.5
v 1.5 23 -2.5
v 2.5 0 1.5
v 2.5 0 -1.5
v 2.5 23 1.5
v 2.5 23 -1.5
v -1.5 0 2.5
v -1.5 23 2.5
v 0.5 3 2.5
v 0.5 23 2.5
v 1.5 0 2.5
v 1.5 3 2.5
v 1.5 23 2.5
v -2.5 0 1.5
v -2.5 3 1.5
v -2.5 23 1.5
v -1.5 0 1.5
v -1.5 3 1.5
v -1.5 23 1.5
v 1.5 0 1.5
v 1.5 3 1.5
v 1.5 23 1.5
v 2.5 0 1.5
v 2.5 23 1.5
v -2.5 0 -1.5
v -2.5 3 -1.5
v -2.5 23 -1.5
v -1.5 0 -1.5
v -1.5 3 -1.5
v -1.5 23 -1.5
v 1.5 0 -1.5
v 1.5 23 -1.5
v 2.5 0 -1.5
v 2.5 23 -1.5
v -1.5 0 -2.5
v -1.5 3 -2.5
v -1.5 23 -2.5
v -0.5 3 -2.5
v -0.5 23 -2.5
v 1.5 0 -2.5
v 1.5 23 -2.5
v -1.5 0 2.5
v 1.5 0 2.5
v -2.5 0 1.5
v -1.5 0 1.5
v 1.5 0 1.5
v 2.5 0 1.5
v -2.5 0 -1.5
v -1.5 0 -1.5
v 1.5 0 -1.5
v 2.5 0 -1.5
v -1.5 0 -2.5
v 1.5 0 -2.5
v -1.5 23 2.5
v 0.5 23 2.5
v 1.5 23 2.5
v -2.5 23 1.5
v -1.5 23 1.5
v 0.5 23 1.5
v 1.5 23 1.5
v 2.5 23 1.5
v -2.5 23 -1.5
v -1.5 23 -1.5
v -0.5 23 -1.5
v 1.5 23 -1.5
v 2.5 23 -1.5
v -1.5 23 -2.5
v -0.5 23 -2.5
v 1.5 23 -2.5

# faces
f 3/1/1 2/1/1 1/1/1
f 4/1/1 2/1/1 3/1/1
f 5/2/1 4/2/1 3/2/1
f 6/2/1 4/2/1 5/2/1
f 11/1/1 8/1/1 7/1/1
f 12/1/1 10/1/1 9/1/1
f 13/1/1 10/1/1 12/1/1
f 14/1/1 11/1/1 7/1/1
f 15/1/1 11/1/1 14/1/1
f 16/2/1 13/2/1 12/2/1
f 17/2/1 13/2/1 16/2/1
f 18/1/2 19/1/2 22/1/2
f 22/1/2 19/1/2 23/1/2
f 22/2/2 23/2/2 24/2/2
f 24/2/2 23/2/2 25/2/2
f 20/1/2 21/1/2 26/1/2
f 26/1/2 21/1/2 27/1/2
f 28/1/2 29/1/2 30/1/2
f 30/1/2 29/1/2 31/1/2
f 34/1/3 33/1/3 32/1/3
f 35/1/3 33/1/3 34/1/3
f 36/1/3 34/1/3 32/1/3
f 37/2/3 35/2/3 34/2/3
f 37/1/3 34/1/3 36/1/3
f 38/2/3 35/2/3 37/2/3
f 42/1/3 40/1/3 39/1/3
f 43/2/3 41/2/3 40/2/3
f 43/1/3 40/1/3 42/1/3
f 44/2/3 41/2/3 43/2/3
f 48/1/3 46/1/3 45/1/3
f 48/1/3 47/1/3 46/1/3
f 49/1/3 47/1/3 48/1/3
f 50/1/4 51/1/4 53/1/4
f 51/2/4 52/2/4 54/2/4
f 53/1/4 51/1/4 54/1/4
f 54/2/4 52/2/4 55/2/4
f 56/1/4 57/1/4 58/1/4
f 58/1/4 57/1/4 59/1/4
f 60/1/4 61/1/4 63/1/4
f 61/2/4 62/2/4 63/2/4
f 63/2/4 62/2/4 64/2/4
f 60/1/4 63/1/4 65/1/4
f 63/1/4 64/1/4 65/1/4
f 65/1/4 64/1/4 66/1/4
f 70/1/5 68/1/5 67/1/5
f 71/1/5 68/1/5 70/1/5
f 73/1/5 70/1/5 69/1/5
f 73/1/5 72/1/5 71/1/5
f 73/1/5 71/1/5 70/1/5
f 74/1/5 72/1/5 73/1/5
f 75/1/5 72/1/5 74/1/5
f 76/1/5 72/1/5 75/1/5
f 77/1/5 75/1/5 74/1/5
f 78/1/5 75/1/5 77/1/5
f 79/1/6 80/1/6 83/1/6
f 80/2/6 81/2/6 84/2/6
f 83/1/6 80/1/6 84/1/6
f 84/2/6 81/2/6 85/2/6
f 82/2/6 83/2/6 87/2/6
f 83/2/6 84/2/6 87/2/6
f 84/2/6 85/2/6 87/2/6
f 87/2/6 85/2/6 88/2/6
f 88/2/6 85/2/6 89/2/6
f 85/1/6 86/1/6 90/1/6
f 89/2/6 85/2/6 90/2/6
f 90/1/6 86/1/6 91/1/6
f 88/2/6 89/2/6 92/2/6
f 89/1/6 90/1/6 93/1/6
f 92/2/6 89/2/6 93/2/6
f 93/1/6 90/1/6 94/1/6
