# MagicaVoxel @ Ephtracy

# group
g human0_leg2

# material
mtllib human0_leg2.mtl
usemtl palette

# normals
vn -1 0 0
vn 1 0 0
vn 0 0 1
vn 0 0 -1
vn 0 -1 0
vn 0 1 0

# texcoords
vt 0.0566406 0.5
vt 0.396484 0.5
vt 0.990234 0.5

# verts
v -2.5 0 8.5
v -2.5 0 -1.5
v -2.5 4 8.5
v -2.5 4 1.5
v -2.5 10 1.5
v -2.5 10 -1.5
v -2.5 11 1.5
v -2.5 11 -1.5
v -2.5 12 1.5
v -2.5 12 -1.5
v -2.5 13 1.5
v -2.5 13 -1.5
v -2.5 15 1.5
v -2.5 15 -1.5
v -2.5 26 1.5
v -2.5 26 -1.5
v -1.5 0 -1.5
v -1.5 0 -2.5
v -1.5 4 2.5
v -1.5 4 1.5
v -1.5 10 2.5
v -1.5 10 1.5
v -1.5 10 -1.5
v -1.5 10 -2.5
v -1.5 11 2.5
v -1.5 11 1.5
v -1.5 11 -1.5
v -1.5 11 -2.5
v -1.5 12 2.5
v -1.5 12 1.5
v -1.5 12 -1.5
v -1.5 12 -2.5
v -1.5 13 2.5
v -1.5 13 1.5
v -1.5 13 -1.5
v -1.5 13 -2.5
v -1.5 15 2.5
v -1.5 15 1.5
v -1.5 15 -1.5
v -1.5 15 -2.5
v -1.5 26 2.5
v -1.5 26 1.5
v -1.5 26 -1.5
v -1.5 26 -2.5
v 1.5 0 -1.5
v 1.5 0 -2.5
v 1.5 4 2.5
v 1.5 4 1.5
v 1.5 10 2.5
v 1.5 10 1.5
v 1.5 10 -1.5
v 1.5 10 -2.5
v 1.5 11 2.5
v 1.5 11 1.5
v 1.5 11 -1.5
v 1.5 11 -2.5
v 1.5 12 2.5
v 1.5 12 1.5
v 1.5 12 -1.5
v 1.5 12 -2.5
v 1.5 13 2.5
v 1.5 13 1.5
v 1.5 13 -1.5
v 1.5 13 -2.5
v 1.5 15 2.5
v 1.5 15 1.5
v 1.5 15 -1.5
v 1.5 15 -2.5
v 1.5 26 2.5
v 1.5 26 1.5
v 1.5 26 -1.5
v 1.5 26 -2.5
v 2.5 0 8.5
v 2.5 0 -1.5
v 2.5 4 8.5
v 2.5 4 1.5
v 2.5 10 1.5
v 2.5 10 -1.5
v 2.5 11 1.5
v 2.5 11 -1.5
v 2.5 12 1.5
v 2.5 12 -1.5
v 2.5 13 1.5
v 2.5 13 -1.5
v 2.5 15 1.5
v 2.5 15 -1.5
v 2.5 26 1.5
v 2.5 26 -1.5
v -2.5 0 8.5
v -2.5 4 8.5
v 2.5 0 8.5
v 2.5 4 8.5
v -1.5 4 2.5
v -1.5 10 2.5
v -1.5 11 2.5
v -1.5 12 2.5
v -1.5 13 2.5
v -1.5 15 2.5
v -1.5 26 2.5
v 1.5 4 2.5
v 1.5 10 2.5
v 1.5 11 2.5
v 1.5 12 2.5
v 1.5 13 2.5
v 1.5 15 2.5
v 1.5 26 2.5
v -2.5 4 1.5
v -2.5 10 1.5
v -2.5 11 1.5
v -2.5 12 1.5
v -2.5 13 1.5
v -2.5 15 1.5
v -2.5 26 1.5
v -1.5 4 1.5
v -1.5 10 1.5
v -1.5 11 1.5
v -1.5 12 1.5
v -1.5 13 1.5
v -1.5 15 1.5
v -1.5 26 1.5
v 1.5 4 1.5
v 1.5 10 1.5
v 1.5 11 1.5
v 1.5 12 1.5
v 1.5 13 1.5
v 1.5 15 1.5
v 1.5 26 1.5
v 2.5 4 1.5
v 2.5 10 1.5
v 2.5 11 1.5
v 2.5 12 1.5
v 2.5 13 1.5
v 2.5 15 1.5
v 2.5 26 1.5
v -2.5 0 -1.5
v -2.5 10 -1.5
v -2.5 11 -1.5
v -2.5 12 -1.5
v -2.5 13 -1.5
v -2.5 15 -1.5
v -2.5 26 -1.5
v -1.5 0 -1.5
v -1.5 10 -1.5
v -1.5 11 -1.5
v -1.5 12 -1.5
v -1.5 13 -1.5
v -1.5 15 -1.5
v -1.5 26 -1.5
v 1.5 0 -1.5
v 1.5 10 -1.5
v 1.5 11 -1.5
v 1.5 12 -1.5
v 1.5 13 -1.5
v 1.5 15 -1.5
v 1.5 26 -1.5
v 2.5 0 -1.5
v 2.5 10 -1.5
v 2.5 11 -1.5
v 2.5 12 -1.5
v 2.5 13 -1.5
v 2.5 15 -1.5
v 2.5 26 -1.5
v -1.5 0 -2.5
v -1.5 10 -2.5
v -1.5 11 -2.5
v -1.5 12 -2.5
v -1.5 13 -2.5
v -1.5 15 -2.5
v -1.5 26 -2.5
v 1.5 0 -2.5
v 1.5 10 -2.5
v 1.5 11 -2.5
v 1.5 12 -2.5
v 1.5 13 -2.5
v 1.5 15 -2.5
v 1.5 26 -2.5
v -2.5 0 8.5
v 2.5 0 8.5
v -2.5 0 -1.5
v -1.5 0 -1.5
v 1.5 0 -1.5
v 2.5 0 -1.5
v -1.5 0 -2.5
v 1.5 0 -2.5
v -2.5 4 8.5
v 2.5 4 8.5
v -1.5 4 2.5
v 1.5 4 2.5
v -2.5 4 1.5
v -1.5 4 1.5
v 1.5 4 1.5
v 2.5 4 1.5
v -1.5 26 2.5
v 1.5 26 2.5
v -2.5 26 1.5
v -1.5 26 1.5
v 1.5 26 1.5
v 2.5 26 1.5
v -2.5 26 -1.5
v -1.5 26 -1.5
v 1.5 26 -1.5
v 2.5 26 -1.5
v -1.5 26 -2.5
v 1.5 26 -2.5

# faces
f 3/3/1 2/3/1 1/3/1
f 4/3/1 2/3/1 3/3/1
f 5/3/1 2/3/1 4/3/1
f 6/3/1 2/3/1 5/3/1
f 7/2/1 6/2/1 5/2/1
f 8/2/1 6/2/1 7/2/1
f 9/3/1 8/3/1 7/3/1
f 10/3/1 8/3/1 9/3/1
f 11/2/1 10/2/1 9/2/1
f 12/2/1 10/2/1 11/2/1
f 13/3/1 12/3/1 11/3/1
f 14/3/1 12/3/1 13/3/1
f 15/2/1 14/2/1 13/2/1
f 16/2/1 14/2/1 15/2/1
f 21/3/1 20/3/1 19/3/1
f 22/3/1 20/3/1 21/3/1
f 23/3/1 18/3/1 17/3/1
f 24/3/1 18/3/1 23/3/1
f 25/2/1 22/2/1 21/2/1
f 26/2/1 22/2/1 25/2/1
f 27/2/1 24/2/1 23/2/1
f 28/2/1 24/2/1 27/2/1
f 29/3/1 26/3/1 25/3/1
f 30/3/1 26/3/1 29/3/1
f 31/3/1 28/3/1 27/3/1
f 32/3/1 28/3/1 31/3/1
f 33/2/1 30/2/1 29/2/1
f 34/2/1 30/2/1 33/2/1
f 35/2/1 32/2/1 31/2/1
f 36/2/1 32/2/1 35/2/1
f 37/3/1 34/3/1 33/3/1
f 38/3/1 34/3/1 37/3/1
f 39/3/1 36/3/1 35/3/1
f 40/3/1 36/3/1 39/3/1
f 41/2/1 38/2/1 37/2/1
f 42/2/1 38/2/1 41/2/1
f 43/2/1 40/2/1 39/2/1
f 44/2/1 40/2/1 43/2/1
f 47/3/2 48/3/2 49/3/2
f 49/3/2 48/3/2 50/3/2
f 45/3/2 46/3/2 51/3/2
f 51/3/2 46/3/2 52/3/2
f 49/2/2 50/2/2 53/2/2
f 53/2/2 50/2/2 54/2/2
f 51/2/2 52/2/2 55/2/2
f 55/2/2 52/2/2 56/2/2
f 53/3/2 54/3/2 57/3/2
f 57/3/2 54/3/2 58/3/2
f 55/3/2 56/3/2 59/3/2
f 59/3/2 56/3/2 60/3/2
f 57/2/2 58/2/2 61/2/2
f 61/2/2 58/2/2 62/2/2
f 59/2/2 60/2/2 63/2/2
f 63/2/2 60/2/2 64/2/2
f 61/3/2 62/3/2 65/3/2
f 65/3/2 62/3/2 66/3/2
f 63/3/2 64/3/2 67/3/2
f 67/3/2 64/3/2 68/3/2
f 65/2/2 66/2/2 69/2/2
f 69/2/2 66/2/2 70/2/2
f 67/2/2 68/2/2 71/2/2
f 71/2/2 68/2/2 72/2/2
f 73/3/2 74/3/2 75/3/2
f 75/3/2 74/3/2 76/3/2
f 76/3/2 74/3/2 77/3/2
f 77/3/2 74/3/2 78/3/2
f 77/2/2 78/2/2 79/2/2
f 79/2/2 78/2/2 80/2/2
f 79/3/2 80/3/2 81/3/2
f 81/3/2 80/3/2 82/3/2
f 81/2/2 82/2/2 83/2/2
f 83/2/2 82/2/2 84/2/2
f 83/3/2 84/3/2 85/3/2
f 85/3/2 84/3/2 86/3/2
f 85/2/2 86/2/2 87/2/2
f 87/2/2 86/2/2 88/2/2
f 91/3/3 90/3/3 89/3/3
f 92/3/3 90/3/3 91/3/3
f 100/3/3 94/3/3 93/3/3
f 101/2/3 95/2/3 94/2/3
f 101/3/3 94/3/3 100/3/3
f 102/3/3 96/3/3 95/3/3
f 102/2/3 95/2/3 101/2/3
f 103/2/3 97/2/3 96/2/3
f 103/3/3 96/3/3 102/3/3
f 104/3/3 98/3/3 97/3/3
f 104/2/3 97/2/3 103/2/3
f 105/2/3 99/2/3 98/2/3
f 105/3/3 98/3/3 104/3/3
f 106/2/3 99/2/3 105/2/3
f 114/3/3 108/3/3 107/3/3
f 115/2/3 109/2/3 108/2/3
f 115/3/3 108/3/3 114/3/3
f 116/3/3 110/3/3 109/3/3
f 116/2/3 109/2/3 115/2/3
f 117/2/3 111/2/3 110/2/3
f 117/3/3 110/3/3 116/3/3
f 118/3/3 112/3/3 111/3/3
f 118/2/3 111/2/3 117/2/3
f 119/2/3 113/2/3 112/2/3
f 119/3/3 112/3/3 118/3/3
f 120/2/3 113/2/3 119/2/3
f 128/3/3 122/3/3 121/3/3
f 129/2/3 123/2/3 122/2/3
f 129/3/3 122/3/3 128/3/3
f 130/3/3 124/3/3 123/3/3
f 130/2/3 123/2/3 129/2/3
f 131/2/3 125/2/3 124/2/3
f 131/3/3 124/3/3 130/3/3
f 132/3/3 126/3/3 125/3/3
f 132/2/3 125/2/3 131/2/3
f 133/2/3 127/2/3 126/2/3
f 133/3/3 126/3/3 132/3/3
f 134/2/3 127/2/3 133/2/3
f 135/3/4 136/3/4 142/3/4
f 136/2/4 137/2/4 143/2/4
f 142/3/4 136/3/4 143/3/4
f 137/3/4 138/3/4 144/3/4
f 143/2/4 137/2/4 144/2/4
f 138/2/4 139/2/4 145/2/4
f 144/3/4 138/3/4 145/3/4
f 139/3/4 140/3/4 146/3/4
f 145/2/4 139/2/4 146/2/4
f 140/2/4 141/2/4 147/2/4
f 146/3/4 140/3/4 147/3/4
f 147/2/4 141/2/4 148/2/4
f 149/3/4 150/3/4 156/3/4
f 150/2/4 151/2/4 157/2/4
f 156/3/4 150/3/4 157/3/4
f 151/3/4 152/3/4 158/3/4
f 157/2/4 151/2/4 158/2/4
f 152/2/4 153/2/4 159/2/4
f 158/3/4 152/3/4 159/3/4
f 153/3/4 154/3/4 160/3/4
f 159/2/4 153/2/4 160/2/4
f 154/2/4 155/2/4 161/2/4
f 160/3/4 154/3/4 161/3/4
f 161/2/4 155/2/4 162/2/4
f 163/3/4 164/3/4 170/3/4
f 164/2/4 165/2/4 171/2/4
f 170/3/4 164/3/4 171/3/4
f 165/3/4 166/3/4 172/3/4
f 171/2/4 165/2/4 172/2/4
f 166/2/4 167/2/4 173/2/4
f 172/3/4 166/3/4 173/3/4
f 167/3/4 168/3/4 174/3/4
f 173/2/4 167/2/4 174/2/4
f 168/2/4 169/2/4 175/2/4
f 174/3/4 168/3/4 175/3/4
f 175/2/4 169/2/4 176/2/4
f 179/3/5 178/3/5 177/3/5
f 180/3/5 178/3/5 179/3/5
f 181/3/5 178/3/5 180/3/5
f 182/3/5 178/3/5 181/3/5
f 183/3/5 181/3/5 180/3/5
f 184/3/5 181/3/5 183/3/5
f 185/3/6 186/3/6 187/3/6
f 187/3/6 186/3/6 188/3/6
f 185/3/6 187/3/6 189/3/6
f 189/3/6 187/3/6 190/3/6
f 188/3/6 186/3/6 191/3/6
f 191/3/6 186/3/6 192/3/6
f 193/2/6 194/2/6 196/2/6
f 196/2/6 194/2/6 197/2/6
f 195/2/6 196/2/6 199/2/6
f 196/1/6 197/1/6 200/1/6
f 199/2/6 196/2/6 200/2/6
f 197/2/6 198/2/6 201/2/6
f 200/1/6 197/1/6 201/1/6
f 201/2/6 198/2/6 202/2/6
f 200/2/6 201/2/6 203/2/6
f 203/2/6 201/2/6 204/2/6
