# MagicaVoxel @ Ephtracy

# group
g human0_chest

# material
mtllib human0_chest.mtl
usemtl palette

# normals
vn -1 0 0
vn 1 0 0
vn 0 0 1
vn 0 0 -1
vn 0 -1 0
vn 0 1 0

# texcoords
vt 0.0566406 0.5
vt 0.396484 0.5
vt 0.927734 0.5
vt 0.966797 0.5

# verts
v -9.5 0 1
v -9.5 0 -2
v -9.5 1 2
v -9.5 1 1
v -9.5 7 2
v -9.5 7 -2
v -9.5 30 -2
v -9.5 30 -3
v -9.5 33 2
v -9.5 33 1
v -9.5 33 -2
v -9.5 33 -3
v -9.5 34 1
v -9.5 34 -2
v -8.5 0 2
v -8.5 0 1
v -8.5 0 -2
v -8.5 0 -3
v -8.5 1 3
v -8.5 1 2
v -8.5 1 1
v -8.5 7 3
v -8.5 7 2
v -8.5 7 -2
v -8.5 7 -3
v -8.5 30 -2
v -8.5 30 -3
v -8.5 33 3
v -8.5 33 2
v -8.5 33 1
v -8.5 34 2
v -8.5 34 1
v -2.5 33 2
v -2.5 33 -2
v -2.5 37 2
v -2.5 37 -2
v 1.5 26 3
v 1.5 26 2
v 1.5 29 3
v 1.5 29 2
v 2.5 32 -2
v 2.5 32 -3
v 2.5 33 -2
v 2.5 33 -3
v 4.5 29 3
v 4.5 29 2
v 4.5 33 3
v 4.5 33 2
v 4.5 33 -1
v 4.5 33 -2
v 4.5 34 2
v 4.5 34 -1
v 4.5 34 -2
v 5.5 0 -2
v 5.5 0 -3
v 5.5 1 -2
v 5.5 1 -3
v -5.5 0 -2
v -5.5 0 -3
v -5.5 1 -2
v -5.5 1 -3
v -4.5 29 3
v -4.5 29 2
v -4.5 33 3
v -4.5 33 2
v -4.5 33 -1
v -4.5 33 -2
v -4.5 34 2
v -4.5 34 -1
v -4.5 34 -2
v -2.5 32 -2
v -2.5 32 -3
v -2.5 33 -2
v -2.5 33 -3
v -1.5 26 3
v -1.5 26 2
v -1.5 29 3
v -1.5 29 2
v 2.5 33 2
v 2.5 33 -2
v 2.5 37 2
v 2.5 37 -2
v 8.5 0 2
v 8.5 0 1
v 8.5 0 -2
v 8.5 0 -3
v 8.5 1 3
v 8.5 1 2
v 8.5 1 1
v 8.5 7 3
v 8.5 7 2
v 8.5 7 -2
v 8.5 7 -3
v 8.5 30 -2
v 8.5 30 -3
v 8.5 33 3
v 8.5 33 2
v 8.5 33 1
v 8.5 34 2
v 8.5 34 1
v 9.5 0 1
v 9.5 0 -2
v 9.5 1 2
v 9.5 1 1
v 9.5 7 2
v 9.5 7 -2
v 9.5 30 -2
v 9.5 30 -3
v 9.5 33 2
v 9.5 33 1
v 9.5 33 -2
v 9.5 33 -3
v 9.5 34 1
v 9.5 34 -2
v -8.5 1 3
v -8.5 7 3
v -8.5 33 3
v -6.5 7 3
v -6.5 33 3
v -5.5 7 3
v -5.5 33 3
v -4.5 29 3
v -4.5 33 3
v -1.5 26 3
v -1.5 29 3
v 1.5 26 3
v 1.5 29 3
v 4.5 29 3
v 4.5 33 3
v 5.5 7 3
v 5.5 33 3
v 6.5 7 3
v 6.5 33 3
v 8.5 1 3
v 8.5 7 3
v 8.5 33 3
v -9.5 1 2
v -9.5 7 2
v -9.5 33 2
v -8.5 0 2
v -8.5 1 2
v -8.5 7 2
v -8.5 33 2
v -8.5 34 2
v -6.5 33 2
v -6.5 34 2
v -5.5 33 2
v -5.5 34 2
v -4.5 29 2
v -4.5 33 2
v -4.5 34 2
v -2.5 33 2
v -2.5 37 2
v -1.5 26 2
v -1.5 29 2
v 1.5 26 2
v 1.5 29 2
v 2.5 33 2
v 2.5 37 2
v 4.5 29 2
v 4.5 33 2
v 4.5 34 2
v 5.5 33 2
v 5.5 34 2
v 6.5 33 2
v 6.5 34 2
v 8.5 0 2
v 8.5 1 2
v 8.5 7 2
v 8.5 33 2
v 8.5 34 2
v 9.5 1 2
v 9.5 7 2
v 9.5 33 2
v -9.5 0 1
v -9.5 1 1
v -9.5 33 1
v -9.5 34 1
v -8.5 0 1
v -8.5 1 1
v -8.5 33 1
v -8.5 34 1
v 8.5 0 1
v 8.5 1 1
v 8.5 33 1
v 8.5 34 1
v 9.5 0 1
v 9.5 1 1
v 9.5 33 1
v 9.5 34 1
v -9.5 0 -2
v -9.5 7 -2
v -9.5 30 -2
v -9.5 33 -2
v -9.5 34 -2
v -8.5 0 -2
v -8.5 7 -2
v -8.5 30 -2
v -5.5 0 -2
v -5.5 1 -2
v -5.5 33 -2
v -5.5 34 -2
v -4.5 33 -2
v -4.5 34 -2
v -2.5 32 -2
v -2.5 33 -2
v -2.5 37 -2
v 2.5 32 -2
v 2.5 33 -2
v 2.5 37 -2
v 4.5 33 -2
v 4.5 34 -2
v 5.5 0 -2
v 5.5 1 -2
v 5.5 33 -2
v 5.5 34 -2
v 8.5 0 -2
v 8.5 7 -2
v 8.5 30 -2
v 9.5 0 -2
v 9.5 7 -2
v 9.5 30 -2
v 9.5 33 -2
v 9.5 34 -2
v -9.5 30 -3
v -9.5 33 -3
v -8.5 0 -3
v -8.5 7 -3
v -8.5 30 -3
v -5.5 0 -3
v -5.5 1 -3
v -4.5 32 -3
v -4.5 33 -3
v -3.5 31 -3
v -3.5 32 -3
v -3.5 33 -3
v -2.5 30 -3
v -2.5 31 -3
v -2.5 32 -3
v -2.5 33 -3
v -1.5 29 -3
v -1.5 30 -3
v -0.5 7 -3
v -0.5 29 -3
v -0.5 30 -3
v -0.5 31 -3
v 0.5 7 -3
v 0.5 29 -3
v 0.5 30 -3
v 0.5 31 -3
v 1.5 29 -3
v 1.5 30 -3
v 2.5 30 -3
v 2.5 31 -3
v 2.5 32 -3
v 2.5 33 -3
v 3.5 31 -3
v 3.5 32 -3
v 3.5 33 -3
v 4.5 32 -3
v 4.5 33 -3
v 5.5 0 -3
v 5.5 1 -3
v 8.5 0 -3
v 8.5 7 -3
v 8.5 30 -3
v 9.5 30 -3
v 9.5 33 -3
v -8.5 0 2
v 8.5 0 2
v -9.5 0 1
v -8.5 0 1
v -5.5 0 1
v -4.5 0 1
v 4.5 0 1
v 5.5 0 1
v 8.5 0 1
v 9.5 0 1
v -5.5 0 -1
v -4.5 0 -1
v 4.5 0 -1
v 5.5 0 -1
v -9.5 0 -2
v -8.5 0 -2
v -5.5 0 -2
v 5.5 0 -2
v 8.5 0 -2
v 9.5 0 -2
v -8.5 0 -3
v -5.5 0 -3
v 5.5 0 -3
v 8.5 0 -3
v -8.5 1 3
v 8.5 1 3
v -9.5 1 2
v -8.5 1 2
v 8.5 1 2
v 9.5 1 2
v -9.5 1 1
v -8.5 1 1
v 8.5 1 1
v 9.5 1 1
v -5.5 1 -2
v 5.5 1 -2
v -5.5 1 -3
v 5.5 1 -3
v -9.5 30 -2
v -8.5 30 -2
v 8.5 30 -2
v 9.5 30 -2
v -9.5 30 -3
v -8.5 30 -3
v 8.5 30 -3
v 9.5 30 -3
v -1.5 26 3
v 1.5 26 3
v -1.5 26 2
v 1.5 26 2
v -4.5 29 3
v -1.5 29 3
v 1.5 29 3
v 4.5 29 3
v -4.5 29 2
v -1.5 29 2
v 1.5 29 2
v 4.5 29 2
v -2.5 32 -2
v 2.5 32 -2
v -2.5 32 -3
v 2.5 32 -3
v -8.5 33 3
v -6.5 33 3
v -5.5 33 3
v -4.5 33 3
v 4.5 33 3
v 5.5 33 3
v 6.5 33 3
v 8.5 33 3
v -9.5 33 2
v -8.5 33 2
v -6.5 33 2
v -5.5 33 2
v -4.5 33 2
v -2.5 33 2
v 2.5 33 2
v 4.5 33 2
v 5.5 33 2
v 6.5 33 2
v 8.5 33 2
v 9.5 33 2
v -9.5 33 1
v -8.5 33 1
v 8.5 33 1
v 9.5 33 1
v -4.5 33 -1
v 4.5 33 -1
v -9.5 33 -2
v -5.5 33 -2
v -4.5 33 -2
v -3.5 33 -2
v -2.5 33 -2
v 2.5 33 -2
v 3.5 33 -2
v 4.5 33 -2
v 5.5 33 -2
v 9.5 33 -2
v -9.5 33 -3
v -4.5 33 -3
v -3.5 33 -3
v -2.5 33 -3
v 2.5 33 -3
v 3.5 33 -3
v 4.5 33 -3
v 9.5 33 -3
v -8.5 34 2
v -6.5 34 2
v -5.5 34 2
v -4.5 34 2
v 4.5 34 2
v 5.5 34 2
v 6.5 34 2
v 8.5 34 2
v -9.5 34 1
v -8.5 34 1
v 8.5 34 1
v 9.5 34 1
v -6.5 34 -1
v -5.5 34 -1
v -4.5 34 -1
v 4.5 34 -1
v 5.5 34 -1
v 6.5 34 -1
v -9.5 34 -2
v -5.5 34 -2
v -4.5 34 -2
v 4.5 34 -2
v 5.5 34 -2
v 9.5 34 -2
v -2.5 37 2
v 2.5 37 2
v -2.5 37 -2
v 2.5 37 -2

# faces
f 4/2/1 2/2/1 1/2/1
f 5/2/1 4/2/1 3/2/1
f 6/2/1 2/2/1 4/2/1
f 6/2/1 4/2/1 5/2/1
f 7/3/1 6/3/1 5/3/1
f 9/3/1 7/3/1 5/3/1
f 9/3/1 8/3/1 7/3/1
f 10/3/1 8/3/1 9/3/1
f 11/3/1 8/3/1 10/3/1
f 12/3/1 8/3/1 11/3/1
f 13/3/1 11/3/1 10/3/1
f 14/3/1 11/3/1 13/3/1
f 20/2/1 16/2/1 15/2/1
f 21/2/1 16/2/1 20/2/1
f 22/2/1 20/2/1 19/2/1
f 23/2/1 20/2/1 22/2/1
f 24/2/1 18/2/1 17/2/1
f 25/2/1 18/2/1 24/2/1
f 26/3/1 25/3/1 24/3/1
f 27/3/1 25/3/1 26/3/1
f 28/3/1 23/3/1 22/3/1
f 29/3/1 23/3/1 28/3/1
f 31/3/1 30/3/1 29/3/1
f 32/3/1 30/3/1 31/3/1
f 35/1/1 34/1/1 33/1/1
f 36/1/1 34/1/1 35/1/1
f 39/3/1 38/3/1 37/3/1
f 40/3/1 38/3/1 39/3/1
f 43/3/1 42/3/1 41/3/1
f 44/3/1 42/3/1 43/3/1
f 47/3/1 46/3/1 45/3/1
f 48/3/1 46/3/1 47/3/1
f 51/3/1 49/3/1 48/3/1
f 52/4/1 50/4/1 49/4/1
f 52/3/1 49/3/1 51/3/1
f 53/4/1 50/4/1 52/4/1
f 56/2/1 55/2/1 54/2/1
f 57/2/1 55/2/1 56/2/1
f 58/2/2 59/2/2 60/2/2
f 60/2/2 59/2/2 61/2/2
f 62/3/2 63/3/2 64/3/2
f 64/3/2 63/3/2 65/3/2
f 65/3/2 66/3/2 68/3/2
f 66/4/2 67/4/2 69/4/2
f 68/3/2 66/3/2 69/3/2
f 69/4/2 67/4/2 70/4/2
f 71/3/2 72/3/2 73/3/2
f 73/3/2 72/3/2 74/3/2
f 75/3/2 76/3/2 77/3/2
f 77/3/2 76/3/2 78/3/2
f 79/1/2 80/1/2 81/1/2
f 81/1/2 80/1/2 82/1/2
f 83/2/2 84/2/2 88/2/2
f 88/2/2 84/2/2 89/2/2
f 87/2/2 88/2/2 90/2/2
f 90/2/2 88/2/2 91/2/2
f 85/2/2 86/2/2 92/2/2
f 92/2/2 86/2/2 93/2/2
f 92/3/2 93/3/2 94/3/2
f 94/3/2 93/3/2 95/3/2
f 90/3/2 91/3/2 96/3/2
f 96/3/2 91/3/2 97/3/2
f 97/3/2 98/3/2 99/3/2
f 99/3/2 98/3/2 100/3/2
f 101/2/2 102/2/2 104/2/2
f 103/2/2 104/2/2 105/2/2
f 104/2/2 102/2/2 106/2/2
f 105/2/2 104/2/2 106/2/2
f 105/3/2 106/3/2 107/3/2
f 105/3/2 107/3/2 109/3/2
f 107/3/2 108/3/2 109/3/2
f 109/3/2 108/3/2 110/3/2
f 110/3/2 108/3/2 111/3/2
f 111/3/2 108/3/2 112/3/2
f 110/3/2 111/3/2 113/3/2
f 113/3/2 111/3/2 114/3/2
f 118/2/3 116/2/3 115/2/3
f 118/3/3 117/3/3 116/3/3
f 119/3/3 117/3/3 118/3/3
f 120/2/3 118/2/3 115/2/3
f 120/4/3 119/4/3 118/4/3
f 121/4/3 119/4/3 120/4/3
f 122/3/3 121/3/3 120/3/3
f 123/3/3 121/3/3 122/3/3
f 124/3/3 122/3/3 120/3/3
f 125/3/3 122/3/3 124/3/3
f 126/3/3 124/3/3 120/3/3
f 128/3/3 127/3/3 126/3/3
f 130/2/3 120/2/3 115/2/3
f 130/3/3 129/3/3 128/3/3
f 130/3/3 126/3/3 120/3/3
f 130/3/3 128/3/3 126/3/3
f 131/3/3 129/3/3 130/3/3
f 132/2/3 130/2/3 115/2/3
f 132/4/3 131/4/3 130/4/3
f 133/4/3 131/4/3 132/4/3
f 134/2/3 132/2/3 115/2/3
f 135/3/3 133/3/3 132/3/3
f 135/2/3 132/2/3 134/2/3
f 136/3/3 133/3/3 135/3/3
f 141/2/3 138/2/3 137/2/3
f 142/3/3 139/3/3 138/3/3
f 142/2/3 138/2/3 141/2/3
f 143/3/3 139/3/3 142/3/3
f 145/3/3 144/3/3 143/3/3
f 146/3/3 144/3/3 145/3/3
f 147/4/3 146/4/3 145/4/3
f 148/4/3 146/4/3 147/4/3
f 150/3/3 148/3/3 147/3/3
f 151/3/3 148/3/3 150/3/3
f 152/1/3 150/1/3 149/1/3
f 155/1/3 152/1/3 149/1/3
f 155/1/3 153/1/3 152/1/3
f 156/1/3 155/1/3 154/1/3
f 157/1/3 153/1/3 155/1/3
f 157/1/3 155/1/3 156/1/3
f 158/1/3 153/1/3 157/1/3
f 159/1/3 153/1/3 158/1/3
f 160/1/3 158/1/3 157/1/3
f 161/1/3 158/1/3 160/1/3
f 163/3/3 162/3/3 161/3/3
f 164/3/3 162/3/3 163/3/3
f 165/4/3 164/4/3 163/4/3
f 166/4/3 164/4/3 165/4/3
f 167/2/3 141/2/3 140/2/3
f 168/2/3 141/2/3 167/2/3
f 170/3/3 166/3/3 165/3/3
f 171/3/3 166/3/3 170/3/3
f 172/2/3 169/2/3 168/2/3
f 173/3/3 170/3/3 169/3/3
f 173/2/3 169/2/3 172/2/3
f 174/3/3 170/3/3 173/3/3
f 179/2/3 176/2/3 175/2/3
f 180/2/3 176/2/3 179/2/3
f 181/3/3 178/3/3 177/3/3
f 182/3/3 178/3/3 181/3/3
f 187/2/3 184/2/3 183/2/3
f 188/2/3 184/2/3 187/2/3
f 189/3/3 186/3/3 185/3/3
f 190/3/3 186/3/3 189/3/3
f 191/2/4 192/2/4 196/2/4
f 192/3/4 193/3/4 197/3/4
f 196/2/4 192/2/4 197/2/4
f 197/3/4 193/3/4 198/3/4
f 194/3/4 195/3/4 201/3/4
f 201/3/4 195/3/4 202/3/4
f 201/4/4 202/4/4 203/4/4
f 203/4/4 202/4/4 204/4/4
f 205/1/4 206/1/4 208/1/4
f 206/1/4 207/1/4 208/1/4
f 208/1/4 207/1/4 209/1/4
f 209/1/4 207/1/4 210/1/4
f 199/2/4 200/2/4 213/2/4
f 213/2/4 200/2/4 214/2/4
f 211/4/4 212/4/4 215/4/4
f 215/4/4 212/4/4 216/4/4
f 217/2/4 218/2/4 220/2/4
f 218/3/4 219/3/4 221/3/4
f 220/2/4 218/2/4 221/2/4
f 221/3/4 219/3/4 222/3/4
f 215/3/4 216/3/4 223/3/4
f 223/3/4 216/3/4 224/3/4
f 225/3/4 226/3/4 229/3/4
f 227/2/4 228/2/4 230/2/4
f 230/2/4 228/2/4 231/2/4
f 228/3/4 229/3/4 232/3/4
f 229/3/4 226/3/4 232/3/4
f 232/3/4 226/3/4 233/3/4
f 228/3/4 232/3/4 234/3/4
f 232/4/4 233/4/4 235/4/4
f 234/3/4 232/3/4 235/3/4
f 235/4/4 233/4/4 236/4/4
f 228/3/4 234/3/4 237/3/4
f 234/4/4 235/4/4 238/4/4
f 237/3/4 234/3/4 238/3/4
f 235/3/4 236/3/4 239/3/4
f 238/4/4 235/4/4 239/4/4
f 239/3/4 236/3/4 240/3/4
f 228/3/4 237/3/4 241/3/4
f 237/4/4 238/4/4 242/4/4
f 241/3/4 237/3/4 242/3/4
f 231/2/4 228/2/4 243/2/4
f 228/3/4 241/3/4 243/3/4
f 241/4/4 242/4/4 244/4/4
f 243/3/4 241/3/4 244/3/4
f 242/4/4 238/4/4 245/4/4
f 244/4/4 242/4/4 245/4/4
f 238/3/4 239/3/4 246/3/4
f 245/4/4 238/4/4 246/4/4
f 243/4/4 244/4/4 247/4/4
f 231/2/4 243/2/4 247/2/4
f 244/4/4 245/4/4 247/4/4
f 247/4/4 245/4/4 248/4/4
f 245/3/4 246/3/4 249/3/4
f 248/4/4 245/4/4 249/4/4
f 246/3/4 239/3/4 250/3/4
f 249/3/4 246/3/4 250/3/4
f 248/4/4 249/4/4 251/4/4
f 247/3/4 248/3/4 251/3/4
f 249/4/4 250/4/4 251/4/4
f 251/4/4 250/4/4 252/4/4
f 251/3/4 252/3/4 253/3/4
f 252/4/4 250/4/4 253/4/4
f 250/3/4 239/3/4 254/3/4
f 253/4/4 250/4/4 254/4/4
f 254/3/4 239/3/4 255/3/4
f 253/3/4 254/3/4 257/3/4
f 254/4/4 255/4/4 257/4/4
f 255/3/4 256/3/4 258/3/4
f 257/4/4 255/4/4 258/4/4
f 258/3/4 256/3/4 259/3/4
f 257/3/4 258/3/4 260/3/4
f 258/4/4 259/4/4 260/4/4
f 260/4/4 259/4/4 261/4/4
f 231/2/4 247/2/4 263/2/4
f 262/2/4 263/2/4 264/2/4
f 251/3/4 253/3/4 265/3/4
f 264/2/4 263/2/4 265/2/4
f 247/3/4 251/3/4 265/3/4
f 263/2/4 247/2/4 265/2/4
f 253/3/4 257/3/4 265/3/4
f 260/3/4 261/3/4 265/3/4
f 257/3/4 260/3/4 265/3/4
f 265/3/4 261/3/4 266/3/4
f 266/3/4 261/3/4 267/3/4
f 267/3/4 261/3/4 268/3/4
f 272/2/5 270/2/5 269/2/5
f 273/2/5 270/2/5 272/2/5
f 274/2/5 270/2/5 273/2/5
f 275/2/5 270/2/5 274/2/5
f 276/2/5 270/2/5 275/2/5
f 277/2/5 270/2/5 276/2/5
f 279/1/5 273/1/5 272/1/5
f 279/3/5 274/3/5 273/3/5
f 280/2/5 275/2/5 274/2/5
f 280/3/5 274/3/5 279/3/5
f 281/3/5 276/3/5 275/3/5
f 281/2/5 275/2/5 280/2/5
f 282/1/5 277/1/5 276/1/5
f 282/3/5 276/3/5 281/3/5
f 283/2/5 272/2/5 271/2/5
f 284/1/5 279/1/5 272/1/5
f 284/2/5 272/2/5 283/2/5
f 285/2/5 281/2/5 280/2/5
f 285/1/5 279/1/5 284/1/5
f 285/2/5 280/2/5 279/2/5
f 285/2/5 282/2/5 281/2/5
f 286/1/5 277/1/5 282/1/5
f 286/2/5 282/2/5 285/2/5
f 287/2/5 278/2/5 277/2/5
f 287/1/5 277/1/5 286/1/5
f 288/2/5 278/2/5 287/2/5
f 289/2/5 285/2/5 284/2/5
f 290/2/5 285/2/5 289/2/5
f 291/2/5 287/2/5 286/2/5
f 292/2/5 287/2/5 291/2/5
f 296/2/5 294/2/5 293/2/5
f 297/2/5 294/2/5 296/2/5
f 299/2/5 296/2/5 295/2/5
f 300/2/5 296/2/5 299/2/5
f 301/2/5 298/2/5 297/2/5
f 302/2/5 298/2/5 301/2/5
f 305/2/5 304/2/5 303/2/5
f 306/2/5 304/2/5 305/2/5
f 311/3/5 308/3/5 307/3/5
f 312/3/5 308/3/5 311/3/5
f 313/3/5 310/3/5 309/3/5
f 314/3/5 310/3/5 313/3/5
f 315/3/6 316/3/6 317/3/6
f 317/3/6 316/3/6 318/3/6
f 319/3/6 320/3/6 323/3/6
f 323/3/6 320/3/6 324/3/6
f 321/3/6 322/3/6 325/3/6
f 325/3/6 322/3/6 326/3/6
f 327/3/6 328/3/6 329/3/6
f 329/3/6 328/3/6 330/3/6
f 331/3/6 332/3/6 340/3/6
f 332/4/6 333/4/6 341/4/6
f 340/3/6 332/3/6 341/3/6
f 333/3/6 334/3/6 342/3/6
f 341/4/6 333/4/6 342/4/6
f 342/3/6 334/3/6 343/3/6
f 335/3/6 336/3/6 346/3/6
f 336/4/6 337/4/6 347/4/6
f 346/3/6 336/3/6 347/3/6
f 337/3/6 338/3/6 348/3/6
f 347/4/6 337/4/6 348/4/6
f 348/3/6 338/3/6 349/3/6
f 339/3/6 340/3/6 351/3/6
f 351/3/6 340/3/6 352/3/6
f 349/3/6 350/3/6 353/3/6
f 353/3/6 350/3/6 354/3/6
f 343/1/6 344/1/6 355/1/6
f 345/1/6 346/1/6 356/1/6
f 355/1/6 344/1/6 359/1/6
f 359/1/6 344/1/6 360/1/6
f 360/1/6 344/1/6 361/1/6
f 345/1/6 356/1/6 362/1/6
f 362/1/6 356/1/6 363/1/6
f 363/1/6 356/1/6 364/1/6
f 357/3/6 358/3/6 367/3/6
f 358/3/6 359/3/6 367/3/6
f 359/4/6 360/4/6 368/4/6
f 367/3/6 359/3/6 368/3/6
f 360/3/6 361/3/6 369/3/6
f 368/4/6 360/4/6 369/4/6
f 369/3/6 361/3/6 370/3/6
f 362/3/6 363/3/6 371/3/6
f 363/4/6 364/4/6 372/4/6
f 371/3/6 363/3/6 372/3/6
f 365/3/6 366/3/6 373/3/6
f 372/4/6 364/4/6 373/4/6
f 364/3/6 365/3/6 373/3/6
f 373/3/6 366/3/6 374/3/6
f 375/3/6 376/3/6 384/3/6
f 381/3/6 382/3/6 385/3/6
f 383/3/6 384/3/6 387/3/6
f 376/4/6 377/4/6 387/4/6
f 384/3/6 376/3/6 387/3/6
f 377/3/6 378/3/6 388/3/6
f 387/4/6 377/4/6 388/4/6
f 388/3/6 378/3/6 389/3/6
f 379/3/6 380/3/6 390/3/6
f 380/4/6 381/4/6 391/4/6
f 390/3/6 380/3/6 391/3/6
f 385/3/6 386/3/6 392/3/6
f 391/4/6 381/4/6 392/4/6
f 381/3/6 385/3/6 392/3/6
f 387/3/6 388/3/6 393/3/6
f 383/3/6 387/3/6 393/3/6
f 388/4/6 389/4/6 394/4/6
f 393/3/6 388/3/6 394/3/6
f 394/4/6 389/4/6 395/4/6
f 390/4/6 391/4/6 396/4/6
f 391/3/6 392/3/6 397/3/6
f 396/4/6 391/4/6 397/4/6
f 392/3/6 386/3/6 398/3/6
f 397/3/6 392/3/6 398/3/6
f 399/1/6 400/1/6 401/1/6
f 401/1/6 400/1/6 402/1/6
