# MagicaVoxel @ Ephtracy

# group
g human1_arm1

# material
mtllib human1_arm1.mtl
usemtl palette

# normals
vn -1 0 0
vn 1 0 0
vn 0 0 1
vn 0 0 -1
vn 0 -1 0
vn 0 1 0

# texcoords
vt 0.0566406 0.5
vt 0.775391 0.5
vt 0.794922 0.5

# verts
v -2.5 0 1.5
v -2.5 0 -1.5
v -2.5 17 1.5
v -2.5 17 0.5
v -2.5 18 1.5
v -2.5 18 0.5
v -2.5 19 1.5
v -2.5 19 -1.5
v -1.5 0 2.5
v -1.5 0 1.5
v -1.5 0 -1.5
v -1.5 0 -2.5
v -1.5 17 2.5
v -1.5 17 1.5
v -1.5 18 2.5
v -1.5 18 1.5
v -1.5 19 2.5
v -1.5 19 1.5
v -1.5 19 -1.5
v -1.5 19 -2.5
v 1.5 0 2.5
v 1.5 0 1.5
v 1.5 0 -1.5
v 1.5 0 -2.5
v 1.5 1 2.5
v 1.5 1 1.5
v 1.5 7 -1.5
v 1.5 7 -2.5
v 1.5 8 -1.5
v 1.5 8 -2.5
v 1.5 12 1.5
v 1.5 14 1.5
v 1.5 17 -1.5
v 1.5 17 -2.5
v 1.5 19 2.5
v 1.5 19 1.5
v 1.5 19 -1.5
v 1.5 19 -2.5
v 2.5 0 1.5
v 2.5 0 -1.5
v 2.5 7 -0.5
v 2.5 7 -1.5
v 2.5 8 -0.5
v 2.5 8 -1.5
v 2.5 12 1.5
v 2.5 12 0.5
v 2.5 14 1.5
v 2.5 14 0.5
v 2.5 17 -0.5
v 2.5 17 -1.5
v 2.5 19 1.5
v 2.5 19 -0.5
v 2.5 19 -1.5
v -1.5 0 2.5
v -1.5 17 2.5
v -1.5 18 2.5
v -1.5 19 2.5
v -0.5 0 2.5
v -0.5 1 2.5
v -0.5 17 2.5
v -0.5 18 2.5
v 1.5 0 2.5
v 1.5 1 2.5
v 1.5 19 2.5
v -2.5 0 1.5
v -2.5 17 1.5
v -2.5 18 1.5
v -2.5 19 1.5
v -1.5 0 1.5
v -1.5 17 1.5
v -1.5 18 1.5
v -1.5 19 1.5
v 1.5 0 1.5
v 1.5 1 1.5
v 1.5 12 1.5
v 1.5 14 1.5
v 1.5 19 1.5
v 2.5 0 1.5
v 2.5 12 1.5
v 2.5 14 1.5
v 2.5 19 1.5
v -2.5 0 -1.5
v -2.5 19 -1.5
v -1.5 0 -1.5
v -1.5 19 -1.5
v 1.5 0 -1.5
v 1.5 7 -1.5
v 1.5 8 -1.5
v 1.5 17 -1.5
v 1.5 19 -1.5
v 2.5 0 -1.5
v 2.5 7 -1.5
v 2.5 8 -1.5
v 2.5 17 -1.5
v 2.5 19 -1.5
v -1.5 0 -2.5
v -1.5 19 -2.5
v 0.5 7 -2.5
v 0.5 8 -2.5
v 0.5 17 -2.5
v 0.5 19 -2.5
v 1.5 0 -2.5
v 1.5 7 -2.5
v 1.5 8 -2.5
v 1.5 17 -2.5
v 1.5 19 -2.5
v -1.5 0 2.5
v -0.5 0 2.5
v 1.5 0 2.5
v -2.5 0 1.5
v -1.5 0 1.5
v -0.5 0 1.5
v 1.5 0 1.5
v 2.5 0 1.5
v -2.5 0 -1.5
v -1.5 0 -1.5
v 1.5 0 -1.5
v 2.5 0 -1.5
v -1.5 0 -2.5
v 1.5 0 -2.5
v -1.5 19 2.5
v 1.5 19 2.5
v -2.5 19 1.5
v -1.5 19 1.5
v 1.5 19 1.5
v 2.5 19 1.5
v 0.5 19 -0.5
v 1.5 19 -0.5
v 2.5 19 -0.5
v -2.5 19 -1.5
v -1.5 19 -1.5
v 0.5 19 -1.5
v 1.5 19 -1.5
v 2.5 19 -1.5
v -1.5 19 -2.5
v 0.5 19 -2.5
v 1.5 19 -2.5

# faces
f 3/3/1 2/3/1 1/3/1
f 4/3/1 2/3/1 3/3/1
f 5/2/1 4/2/1 3/2/1
f 6/3/1 2/3/1 4/3/1
f 6/2/1 4/2/1 5/2/1
f 7/3/1 6/3/1 5/3/1
f 8/3/1 2/3/1 6/3/1
f 8/3/1 6/3/1 7/3/1
f 13/3/1 10/3/1 9/3/1
f 14/3/1 10/3/1 13/3/1
f 15/2/1 14/2/1 13/2/1
f 16/2/1 14/2/1 15/2/1
f 17/3/1 16/3/1 15/3/1
f 18/3/1 16/3/1 17/3/1
f 19/3/1 12/3/1 11/3/1
f 20/3/1 12/3/1 19/3/1
f 21/2/2 22/2/2 25/2/2
f 25/2/2 22/2/2 26/2/2
f 23/3/2 24/3/2 27/3/2
f 27/3/2 24/3/2 28/3/2
f 27/2/2 28/2/2 29/2/2
f 29/2/2 28/2/2 30/2/2
f 25/3/2 26/3/2 31/3/2
f 25/3/2 31/3/2 32/3/2
f 29/3/2 30/3/2 33/3/2
f 33/3/2 30/3/2 34/3/2
f 25/3/2 32/3/2 35/3/2
f 35/3/2 32/3/2 36/3/2
f 33/2/2 34/2/2 37/2/2
f 37/2/2 34/2/2 38/2/2
f 39/3/2 40/3/2 41/3/2
f 41/3/2 40/3/2 42/3/2
f 39/3/2 41/3/2 43/3/2
f 41/2/2 42/2/2 43/2/2
f 43/2/2 42/2/2 44/2/2
f 39/3/2 43/3/2 45/3/2
f 43/3/2 44/3/2 45/3/2
f 45/3/2 44/3/2 46/3/2
f 45/2/2 46/2/2 47/2/2
f 46/3/2 44/3/2 48/3/2
f 47/2/2 46/2/2 48/2/2
f 47/3/2 48/3/2 49/3/2
f 48/3/2 44/3/2 49/3/2
f 49/3/2 44/3/2 50/3/2
f 47/3/2 49/3/2 51/3/2
f 49/2/2 50/2/2 52/2/2
f 51/3/2 49/3/2 52/3/2
f 52/2/2 50/2/2 53/2/2
f 58/3/3 55/3/3 54/3/3
f 59/3/3 55/3/3 58/3/3
f 60/2/3 56/2/3 55/2/3
f 60/3/3 55/3/3 59/3/3
f 61/3/3 57/3/3 56/3/3
f 61/2/3 56/2/3 60/2/3
f 62/2/3 59/2/3 58/2/3
f 63/3/3 60/3/3 59/3/3
f 63/2/3 59/2/3 62/2/3
f 63/3/3 61/3/3 60/3/3
f 64/3/3 57/3/3 61/3/3
f 64/3/3 61/3/3 63/3/3
f 69/3/3 66/3/3 65/3/3
f 70/2/3 67/2/3 66/2/3
f 70/3/3 66/3/3 69/3/3
f 71/3/3 68/3/3 67/3/3
f 71/2/3 67/2/3 70/2/3
f 72/3/3 68/3/3 71/3/3
f 78/3/3 74/3/3 73/3/3
f 78/3/3 75/3/3 74/3/3
f 79/2/3 76/2/3 75/2/3
f 79/3/3 75/3/3 78/3/3
f 80/3/3 77/3/3 76/3/3
f 80/2/3 76/2/3 79/2/3
f 81/3/3 77/3/3 80/3/3
f 82/3/4 83/3/4 84/3/4
f 84/3/4 83/3/4 85/3/4
f 86/3/4 87/3/4 91/3/4
f 87/2/4 88/2/4 92/2/4
f 91/3/4 87/3/4 92/3/4
f 88/3/4 89/3/4 93/3/4
f 92/2/4 88/2/4 93/2/4
f 89/2/4 90/2/4 94/2/4
f 93/3/4 89/3/4 94/3/4
f 94/2/4 90/2/4 95/2/4
f 96/3/4 97/3/4 98/3/4
f 98/3/4 97/3/4 99/3/4
f 99/3/4 97/3/4 100/3/4
f 100/3/4 97/3/4 101/3/4
f 96/3/4 98/3/4 102/3/4
f 98/2/4 99/2/4 103/2/4
f 102/3/4 98/3/4 103/3/4
f 99/3/4 100/3/4 104/3/4
f 103/2/4 99/2/4 104/2/4
f 100/2/4 101/2/4 105/2/4
f 104/3/4 100/3/4 105/3/4
f 105/2/4 101/2/4 106/2/4
f 111/3/5 108/3/5 107/3/5
f 112/2/5 109/2/5 108/2/5
f 112/3/5 108/3/5 111/3/5
f 113/2/5 109/2/5 112/2/5
f 115/3/5 111/3/5 110/3/5
f 116/1/5 112/1/5 111/1/5
f 116/3/5 111/3/5 115/3/5
f 116/1/5 113/1/5 112/1/5
f 117/3/5 114/3/5 113/3/5
f 117/1/5 113/1/5 116/1/5
f 118/3/5 114/3/5 117/3/5
f 119/3/5 117/3/5 116/3/5
f 120/3/5 117/3/5 119/3/5
f 121/3/6 122/3/6 124/3/6
f 124/3/6 122/3/6 125/3/6
f 124/1/6 125/1/6 127/1/6
f 125/3/6 126/3/6 128/3/6
f 127/1/6 125/1/6 128/1/6
f 128/3/6 126/3/6 129/3/6
f 123/3/6 124/3/6 130/3/6
f 124/1/6 127/1/6 131/1/6
f 130/3/6 124/3/6 131/3/6
f 127/2/6 128/2/6 132/2/6
f 131/1/6 127/1/6 132/1/6
f 128/2/6 129/2/6 132/2/6
f 132/2/6 129/2/6 133/2/6
f 133/2/6 129/2/6 134/2/6
f 131/3/6 132/3/6 135/3/6
f 132/2/6 133/2/6 136/2/6
f 135/3/6 132/3/6 136/3/6
f 136/2/6 133/2/6 137/2/6
