# MagicaVoxel @ Ephtracy

# group
g human1_leg2

# material
mtllib human1_leg2.mtl
usemtl palette

# normals
vn -1 0 0
vn 1 0 0
vn 0 0 1
vn 0 0 -1
vn 0 -1 0
vn 0 1 0

# texcoords
vt 0.0566406 0.5
vt 0.662109 0.5
vt 0.990234 0.5

# verts
v -2.5 0 1.5
v -2.5 0 -1.5
v -2.5 3 1.5
v -2.5 3 -1.5
v -2.5 21 8.5
v -2.5 21 1.5
v -2.5 25 8.5
v -2.5 25 -1.5
v -1.5 0 2.5
v -1.5 0 1.5
v -1.5 0 -1.5
v -1.5 0 -2.5
v -1.5 3 2.5
v -1.5 3 1.5
v -1.5 3 -1.5
v -1.5 3 -2.5
v -1.5 21 2.5
v -1.5 21 1.5
v -1.5 25 -1.5
v -1.5 25 -2.5
v 1.5 0 2.5
v 1.5 0 1.5
v 1.5 0 -1.5
v 1.5 0 -2.5
v 1.5 3 2.5
v 1.5 3 1.5
v 1.5 3 -1.5
v 1.5 3 -2.5
v 1.5 21 2.5
v 1.5 21 1.5
v 1.5 25 -1.5
v 1.5 25 -2.5
v 2.5 0 1.5
v 2.5 0 -1.5
v 2.5 3 1.5
v 2.5 3 -1.5
v 2.5 21 8.5
v 2.5 21 1.5
v 2.5 25 8.5
v 2.5 25 -1.5
v -2.5 21 8.5
v -2.5 25 8.5
v 2.5 21 8.5
v 2.5 25 8.5
v -1.5 0 2.5
v -1.5 3 2.5
v -1.5 21 2.5
v 1.5 0 2.5
v 1.5 3 2.5
v 1.5 21 2.5
v -2.5 0 1.5
v -2.5 3 1.5
v -2.5 21 1.5
v -1.5 0 1.5
v -1.5 3 1.5
v -1.5 21 1.5
v 1.5 0 1.5
v 1.5 3 1.5
v 1.5 21 1.5
v 2.5 0 1.5
v 2.5 3 1.5
v 2.5 21 1.5
v -2.5 0 -1.5
v -2.5 3 -1.5
v -2.5 25 -1.5
v -1.5 0 -1.5
v -1.5 3 -1.5
v -1.5 25 -1.5
v 1.5 0 -1.5
v 1.5 3 -1.5
v 1.5 25 -1.5
v 2.5 0 -1.5
v 2.5 3 -1.5
v 2.5 25 -1.5
v -1.5 0 -2.5
v -1.5 3 -2.5
v -1.5 25 -2.5
v 1.5 0 -2.5
v 1.5 3 -2.5
v 1.5 25 -2.5
v -1.5 0 2.5
v 1.5 0 2.5
v -2.5 0 1.5
v -1.5 0 1.5
v 1.5 0 1.5
v 2.5 0 1.5
v -2.5 0 -1.5
v -1.5 0 -1.5
v 1.5 0 -1.5
v 2.5 0 -1.5
v -1.5 0 -2.5
v 1.5 0 -2.5
v -2.5 21 8.5
v 2.5 21 8.5
v -1.5 21 2.5
v 1.5 21 2.5
v -2.5 21 1.5
v -1.5 21 1.5
v 1.5 21 1.5
v 2.5 21 1.5
v -2.5 25 8.5
v 2.5 25 8.5
v -2.5 25 -1.5
v -1.5 25 -1.5
v 1.5 25 -1.5
v 2.5 25 -1.5
v -1.5 25 -2.5
v 1.5 25 -2.5

# faces
f 3/2/1 2/2/1 1/2/1
f 4/2/1 2/2/1 3/2/1
f 6/3/1 4/3/1 3/3/1
f 7/3/1 6/3/1 5/3/1
f 8/3/1 4/3/1 6/3/1
f 8/3/1 6/3/1 7/3/1
f 13/2/1 10/2/1 9/2/1
f 14/2/1 10/2/1 13/2/1
f 15/2/1 12/2/1 11/2/1
f 16/2/1 12/2/1 15/2/1
f 17/3/1 14/3/1 13/3/1
f 18/3/1 14/3/1 17/3/1
f 19/3/1 16/3/1 15/3/1
f 20/3/1 16/3/1 19/3/1
f 21/2/2 22/2/2 25/2/2
f 25/2/2 22/2/2 26/2/2
f 23/2/2 24/2/2 27/2/2
f 27/2/2 24/2/2 28/2/2
f 25/3/2 26/3/2 29/3/2
f 29/3/2 26/3/2 30/3/2
f 27/3/2 28/3/2 31/3/2
f 31/3/2 28/3/2 32/3/2
f 33/2/2 34/2/2 35/2/2
f 35/2/2 34/2/2 36/2/2
f 35/3/2 36/3/2 38/3/2
f 37/3/2 38/3/2 39/3/2
f 38/3/2 36/3/2 40/3/2
f 39/3/2 38/3/2 40/3/2
f 43/3/3 42/3/3 41/3/3
f 44/3/3 42/3/3 43/3/3
f 48/2/3 46/2/3 45/2/3
f 49/3/3 47/3/3 46/3/3
f 49/2/3 46/2/3 48/2/3
f 50/3/3 47/3/3 49/3/3
f 54/2/3 52/2/3 51/2/3
f 55/3/3 53/3/3 52/3/3
f 55/2/3 52/2/3 54/2/3
f 56/3/3 53/3/3 55/3/3
f 60/2/3 58/2/3 57/2/3
f 61/3/3 59/3/3 58/3/3
f 61/2/3 58/2/3 60/2/3
f 62/3/3 59/3/3 61/3/3
f 63/2/4 64/2/4 66/2/4
f 64/3/4 65/3/4 67/3/4
f 66/2/4 64/2/4 67/2/4
f 67/3/4 65/3/4 68/3/4
f 69/2/4 70/2/4 72/2/4
f 70/3/4 71/3/4 73/3/4
f 72/2/4 70/2/4 73/2/4
f 73/3/4 71/3/4 74/3/4
f 75/2/4 76/2/4 78/2/4
f 76/3/4 77/3/4 79/3/4
f 78/2/4 76/2/4 79/2/4
f 79/3/4 77/3/4 80/3/4
f 84/2/5 82/2/5 81/2/5
f 85/2/5 82/2/5 84/2/5
f 87/2/5 84/2/5 83/2/5
f 88/1/5 85/1/5 84/1/5
f 88/2/5 84/2/5 87/2/5
f 89/2/5 86/2/5 85/2/5
f 89/1/5 85/1/5 88/1/5
f 90/2/5 86/2/5 89/2/5
f 91/2/5 89/2/5 88/2/5
f 92/2/5 89/2/5 91/2/5
f 95/3/5 94/3/5 93/3/5
f 96/3/5 94/3/5 95/3/5
f 97/3/5 95/3/5 93/3/5
f 98/3/5 95/3/5 97/3/5
f 99/3/5 94/3/5 96/3/5
f 100/3/5 94/3/5 99/3/5
f 101/3/6 102/3/6 103/3/6
f 103/3/6 102/3/6 104/3/6
f 104/3/6 102/3/6 105/3/6
f 105/3/6 102/3/6 106/3/6
f 104/3/6 105/3/6 107/3/6
f 107/3/6 105/3/6 108/3/6
